PathFileType	4	(X/Y/Z)	C:/Users/opensim2020/Desktop/walking_exp_matlab/subject03_walking05_straight_02.trc																																																																																																																																					
DataRate	CameraRate	NumFrames	NumMarkers	Units	OrigDataRate	OrigDataStartFrame	OrigNumFrames																																																																																																																																	
100	100	7	45	mm	100	1666	252																																																																																																																																	
Frame#	Time	LFHD			RFHD			LBHD			RBHD			C7			T10			CLAV			STRN			RBAK			LSHO			LUPA			LELB			LFRM			LWRA			LWRB			LFIN			RSHO			RUPA			RELB			RFRM			RWRA			RWRB			RFIN			LASI			RASI			LPSI			RPSI			LTHI			LKNE			LTIB			LANK			LHEE			LTOE			RTHI			RKNE			RTIB			RANK			RHEE			RTOE			*39			*40			*41			*42			*43			*44		
		X1	Y1	Z1	X2	Y2	Z2	X3	Y3	Z3	X4	Y4	Z4	X5	Y5	Z5	X6	Y6	Z6	X7	Y7	Z7	X8	Y8	Z8	X9	Y9	Z9	X10	Y10	Z10	X11	Y11	Z11	X12	Y12	Z12	X13	Y13	Z13	X14	Y14	Z14	X15	Y15	Z15	X16	Y16	Z16	X17	Y17	Z17	X18	Y18	Z18	X19	Y19	Z19	X20	Y20	Z20	X21	Y21	Z21	X22	Y22	Z22	X23	Y23	Z23	X24	Y24	Z24	X25	Y25	Z25	X26	Y26	Z26	X27	Y27	Z27	X28	Y28	Z28	X29	Y29	Z29	X30	Y30	Z30	X31	Y31	Z31	X32	Y32	Z32	X33	Y33	Z33	X34	Y34	Z34	X35	Y35	Z35	X36	Y36	Z36	X37	Y37	Z37	X38	Y38	Z38	X39	Y39	Z39	X40	Y40	Z40	X41	Y41	Z41	X42	Y42	Z42	X43	Y43	Z43	X44	Y44	Z44	X45	Y45	Z45
																																																																																																																																								
190	1.89	550.6568	1612.24316	-1519.08057	535.36096	1620.31079	-1386.66711	422.08524	1570.19556	-1527.45825	412.10965	1577.96887	-1396.54504	381.48825	1415.90796	-1463.27502	345.19354	1100.74988	-1457.48901	500.54193	1335.15625	-1458.69666	541.17188	1170.78516	-1466.95789	321.51642	1239.83606	-1369.13354	460.46225	1375.30054	-1614.07263	491.36945	1188.6322	-1692.01953	536.77051	1075.28467	-1705.86609	617.18134	974.66766	-1696.81201	688.41138	884.03809	-1656.61414	669.10596	873.49255	-1707.3739	726.80579	815.25928	-1694.09717	451.39557	1359.65686	-1299.89624	441.29114	1135.57813	-1231.18005	451.87766	1022.96661	-1219.82458	462.88708	886.33447	-1219.59204	490.74966	791.06158	-1256.4187	458.04935	785.93512	-1212.72009	478.4382	714.24988	-1224.09473	506.62057	942.41095	-1587.14685	524.0799	939.91364	-1348.11023	348.96533	959.35822	-1522.59082	360.33429	959.0639	-1374.38342	434.25729	640.04248	-1607.98267	418.69116	463.89386	-1563.23071	344.92215	280.83521	-1558.85608	302.86398	75.1977	-1510.53296	259.96393	42.00487	-1472.64648	453.43814	36.32627	-1489.73242	552.90173	649.51111	-1303.43677	626.88232	487.76764	-1342.75061	597.99811	298.35876	-1338.76099	587.09039	82.30523	-1384.23962	544.12531	48.45996	-1437.45398	724.14984	48.35104	-1402.19849	NaN	NaN	NaN	NaN	NaN	NaN	NaN	NaN	NaN	NaN	NaN	NaN	NaN	NaN	NaN	NaN	NaN	NaN
191	1.9	559.82758	1611.27466	-1518.94763	544.65332	1619.06982	-1386.54102	431.3089	1569.02686	-1527.26343	421.45319	1576.58948	-1396.33899	390.91098	1414.86072	-1463.2616	354.56808	1099.55176	-1457.24194	509.96777	1333.96045	-1458.99475	550.40833	1169.47107	-1467.4469	330.98752	1238.59106	-1369.27393	469.79108	1374.31934	-1614.09619	501.68967	1188.34399	-1692.50586	548.40033	1075.62439	-1706.48962	630.80066	977.02814	-1696.93787	705.02283	889.09961	-1656.2616	685.32141	877.00391	-1706.53406	744.66241	820.60956	-1692.64404	460.92404	1358.14734	-1300.04419	449.92694	1134.09644	-1231.47595	459.99835	1021.44141	-1220.11047	469.52255	884.63196	-1219.68188	495.39194	788.34497	-1256.26001	463.28305	784.28925	-1212.323	482.74271	712.37274	-1223.58997	515.74188	941.16351	-1587.42773	533.93634	938.47144	-1348.34387	358.18237	958.25708	-1522.53015	370.07919	957.6004	-1374.30591	441.4296	639.36377	-1608.22144	424.06873	463.29346	-1563.54407	347.83997	280.99939	-1559.01587	303.06525	75.79478	-1510.56213	260.10596	43.14344	-1472.42639	453.59866	36.21959	-1489.80298	560.03961	647.27722	-1303.69263	634.7663	485.65891	-1344.24182	613.91522	296.04504	-1341.22986	614.87152	79.72792	-1388.04651	573.98114	45.09523	-1442.00012	753.74994	50.4433	-1404.77466	NaN	NaN	NaN	NaN	NaN	NaN	NaN	NaN	NaN	NaN	NaN	NaN	NaN	NaN	NaN	NaN	NaN	NaN
192	1.91	569.01898	1610.24792	-1518.81201	553.93738	1617.77478	-1386.36047	440.56412	1567.84473	-1527.0769	430.76321	1575.13696	-1396.15088	400.27347	1413.56458	-1463.22229	363.98911	1098.31763	-1457.02356	519.43494	1332.70935	-1459.20459	559.84131	1168.20544	-1467.90283	340.4729	1237.37939	-1369.4325	479.11136	1373.29736	-1614.13721	511.96051	1187.97278	-1692.98401	559.74554	1075.85254	-1707.06287	644.34229	979.25928	-1696.94287	720.33038	893.49237	-1655.48145	701.03534	880.47485	-1705.66882	761.92181	825.76813	-1691.15967	470.62714	1356.73242	-1300.21021	458.76645	1132.61218	-1231.79492	468.10046	1019.84082	-1220.51294	476.11942	882.97565	-1219.62561	500.51834	786.29254	-1256.13879	468.85104	782.8631	-1211.94458	486.95428	710.42712	-1223.13428	525.00995	940.10699	-1587.67432	543.85144	936.97534	-1348.58948	367.53845	957.10114	-1522.32654	379.9985	956.12073	-1374.11011	448.70459	638.72272	-1608.55615	429.52246	462.71051	-1563.92102	350.75961	281.23236	-1559.13525	303.67822	76.52217	-1510.35962	260.28027	44.4686	-1472.12012	453.63086	36.12237	-1489.84888	567.02563	644.92719	-1303.75024	642.38239	483.48288	-1345.8512	629.14972	293.98859	-1343.70215	641.26904	77.87843	-1391.50488	602.64972	42.7271	-1446.43994	781.03827	53.19474	-1407.09106	NaN	NaN	NaN	NaN	NaN	NaN	NaN	NaN	NaN	NaN	NaN	NaN	NaN	NaN	NaN	NaN	NaN	NaN
193	1.92	578.2951	1609.26465	-1518.60168	563.31409	1616.55493	-1386.13342	449.89142	1566.69275	-1526.91028	440.25116	1573.72351	-1395.86157	410.02167	1412.44067	-1463.09863	373.56421	1097.1189	-1456.80798	528.91809	1331.47742	-1459.375	569.34924	1167.0686	-1468.29211	350.03708	1236.09827	-1369.49426	488.48221	1372.26416	-1614.12268	522.09259	1187.46472	-1693.32556	570.84796	1075.92468	-1707.53882	657.10651	981.28607	-1696.77905	735.09821	897.65375	-1654.54932	716.19818	883.89624	-1704.6936	778.5401	830.85217	-1689.67432	480.22842	1355.37598	-1300.26563	467.52551	1131.19153	-1232.07825	476.29333	1018.37494	-1220.78674	482.68542	881.37402	-1219.5271	506.21466	784.34003	-1255.86853	474.45337	781.40582	-1211.53528	491.58099	708.67487	-1222.56494	534.42743	939.07935	-1587.79883	553.84644	935.3667	-1348.73596	377.00098	955.99731	-1522.09338	390.02893	954.75049	-1373.81274	455.97815	638.05115	-1609.00012	435.06509	462.17319	-1564.35986	353.78845	281.5506	-1559.10986	303.92792	77.44703	-1510.18774	260.73547	45.63407	-1471.47913	453.82266	36.06998	-1490.05371	573.7168	642.37488	-1303.52112	649.78119	481.21927	-1347.44519	643.40186	292.27222	-1346.11072	665.8772	77.09512	-1394.70825	629.11041	41.22495	-1450.328	806.90094	56.47699	-1409.39001	NaN	NaN	NaN	NaN	NaN	NaN	NaN	NaN	NaN	NaN	NaN	NaN	NaN	NaN	NaN	NaN	NaN	NaN
194	1.93	587.61835	1608.30884	-1518.43811	572.76868	1615.33008	-1385.92358	459.24658	1565.57056	-1526.65039	449.72461	1572.33423	-1395.62854	419.32086	1411.24536	-1463.09558	383.38983	1095.8302	-1456.46924	538.53497	1330.33716	-1459.50732	579.00226	1165.94995	-1468.57654	359.74292	1234.72534	-1369.60315	497.92407	1371.24915	-1614.07666	532.32495	1186.9668	-1693.64404	581.83331	1075.91296	-1707.96533	669.78149	983.23199	-1696.49268	749.21448	901.46234	-1653.47314	730.98865	887.07501	-1703.67004	794.56195	835.75977	-1688.11108	489.87454	1354.14136	-1300.29968	476.41083	1129.81079	-1232.36353	484.608	1017.02972	-1220.92004	489.84781	879.93225	-1219.52673	511.93127	782.48419	-1255.51685	480.30258	779.99176	-1211.14429	496.42041	706.93732	-1221.96643	543.88623	937.98627	-1588.04309	564.00073	933.84283	-1348.87634	386.72324	954.9021	-1521.65881	400.17172	953.49921	-1373.51416	463.3949	637.44562	-1609.27429	440.73499	461.65271	-1564.78015	356.98013	282.01749	-1559.07947	304.47043	78.39857	-1510.04236	260.7916	47.45368	-1471.31226	453.93024	35.86546	-1489.89648	580.81567	639.94293	-1303.55115	657.05688	478.85669	-1349.09314	656.78156	290.73865	-1348.50024	688.47723	76.68658	-1397.69495	653.52448	40.32029	-1453.82959	830.74072	59.83093	-1411.52527	NaN	NaN	NaN	NaN	NaN	NaN	NaN	NaN	NaN	NaN	NaN	NaN	NaN	NaN	NaN	NaN	NaN	NaN
195	1.94	597.00781	1607.41357	-1518.23755	582.30762	1614.20422	-1385.68274	468.70627	1564.5603	-1526.46216	459.24393	1571.18176	-1395.41187	429.05905	1410.03625	-1462.83044	393.31207	1094.47595	-1456.10754	548.14215	1329.23999	-1459.58606	588.87531	1165.01599	-1468.87268	369.61798	1233.4198	-1369.55542	507.31979	1370.24561	-1614.02356	542.35382	1186.34253	-1693.80859	592.42932	1075.68481	-1708.23267	682.03235	984.96979	-1696.19189	762.95209	905.11908	-1652.41223	745.16113	890.02063	-1702.56934	809.89526	840.37762	-1686.58289	499.5029	1352.76953	-1300.22742	484.89697	1128.4353	-1232.81897	493.06525	1015.74927	-1221.10107	496.93707	878.52008	-1219.42212	518.15021	780.79468	-1255.07288	486.39645	778.73975	-1210.76978	501.72891	705.47485	-1221.46826	553.44128	936.9408	-1588.26208	574.2774	932.35205	-1349.08643	396.43314	953.79028	-1521.24902	410.38248	952.37592	-1373.16882	470.74457	636.79095	-1609.85596	446.58929	461.19913	-1565.30688	360.26971	282.5643	-1559.19788	305.0531	79.51939	-1510.00159	261.07187	49.17423	-1471.14551	454.03922	35.59734	-1489.88965	588.19525	637.72455	-1303.52161	664.30072	476.58734	-1350.62073	669.36365	289.44455	-1350.75928	709.07312	76.65781	-1400.47473	675.62524	39.83087	-1457.14905	852.32471	62.94356	-1413.72229	NaN	NaN	NaN	NaN	NaN	NaN	NaN	NaN	NaN	NaN	NaN	NaN	NaN	NaN	NaN	NaN	NaN	NaN
196	1.95	606.49829	1606.55029	-1517.9585	591.88153	1613.20166	-1385.43372	478.28973	1563.68237	-1526.07739	468.84601	1569.99561	-1395.09192	438.651	1408.87769	-1462.71777	403.29108	1093.45337	-1455.8894	557.84937	1328.35779	-1459.64343	598.64343	1164.05249	-1469.00757	379.54254	1232.04138	-1369.54919	516.72241	1369.2998	-1613.94031	552.29987	1185.72717	-1693.98267	603.58331	1075.43872	-1708.30518	694.01587	986.37109	-1695.71802	775.9588	908.2923	-1651.24976	758.83386	892.79742	-1701.54053	824.57446	844.70258	-1685.09314	509.32468	1351.71143	-1300.22656	493.91513	1127.30969	-1233.01025	501.63202	1014.57257	-1221.18018	504.23795	877.27197	-1219.29663	524.54633	779.1593	-1254.67163	492.74335	777.59662	-1210.4115	507.21484	704.11957	-1220.92383	563.0321	935.84741	-1588.50354	584.77185	931.10669	-1349.36365	406.38522	952.72528	-1520.63391	420.76126	951.31488	-1372.68909	478.13797	636.43341	-1609.91406	452.62027	460.76743	-1565.93762	363.72195	283.22696	-1559.50122	305.78275	80.86469	-1510.2196	261.45108	51.00645	-1471.16736	454.26563	35.59191	-1490.06482	595.69122	635.66705	-1304.229	671.51074	474.42661	-1352.06885	681.1676	288.27411	-1352.97058	727.39758	76.90624	-1403.06116	695.30914	39.77269	-1460.25366	871.58398	65.5442	-1416.04163	NaN	NaN	NaN	NaN	NaN	NaN	NaN	NaN	NaN	NaN	NaN	NaN	NaN	NaN	NaN	NaN	NaN	NaN
